<svg width="37" height="36" viewBox="0 0 37 36" fill="none" xmlns="http://www.w3.org/2000/svg">
<path d="M18.5 26C22.9183 26 26.5 22.4183 26.5 18C26.5 13.5817 22.9183 10 18.5 10C14.0817 10 10.5 13.5817 10.5 18C10.5 22.4183 14.0817 26 18.5 26Z" stroke="#D6D6E3" stroke-width="2" stroke-linecap="round" stroke-linejoin="round"/>
<path d="M27.9313 7.3496C28.3602 7.74469 28.7666 8.15106 29.1504 8.56873L33.7729 9.22908C34.5261 10.5371 35.1066 11.9372 35.5 13.3944L32.6892 17.1365C32.6892 17.1365 32.74 18.2879 32.6892 18.8635L35.5 22.6056C35.1084 24.0634 34.5278 25.4637 33.7729 26.7709L29.1504 27.4313C29.1504 27.4313 28.3546 28.261 27.9313 28.6504L27.2709 33.2729C25.9629 34.0261 24.5628 34.6066 23.1056 35L19.3635 32.1892C18.789 32.2401 18.211 32.2401 17.6365 32.1892L13.8944 35C12.4366 34.6084 11.0363 34.0278 9.72908 33.2729L9.06873 28.6504C8.65106 28.2553 8.24469 27.8489 7.8496 27.4313L3.22709 26.7709C2.47391 25.4629 1.89338 24.0628 1.5 22.6056L4.31076 18.8635C4.31076 18.8635 4.25996 17.7122 4.31076 17.1365L1.5 13.3944C1.89156 11.9366 2.47219 10.5363 3.22709 9.22908L7.8496 8.56873C8.24469 8.15106 8.65106 7.74469 9.06873 7.3496L9.72908 2.72709C11.0371 1.97391 12.4372 1.39338 13.8944 1L17.6365 3.81076C18.211 3.75995 18.789 3.75995 19.3635 3.81076L23.1056 1C24.5634 1.39156 25.9637 1.97219 27.2709 2.72709L27.9313 7.3496Z" stroke="#D6D6E3" stroke-width="2" stroke-linecap="round" stroke-linejoin="round"/>
</svg>
