<svg width="40" height="38" viewBox="0 0 40 38" fill="none" xmlns="http://www.w3.org/2000/svg">
<path d="M18.0979 3.0892C18.6966 1.24657 21.3034 1.24657 21.9021 3.08919L24.4373 10.8916C24.9728 12.5397 26.5086 13.6556 28.2415 13.6556H36.4455C38.3829 13.6556 39.1885 16.1348 37.6211 17.2736L30.9839 22.0958C29.5819 23.1143 28.9953 24.9198 29.5308 26.5679L32.066 34.3703C32.6647 36.213 30.5557 37.7452 28.9883 36.6064L22.3511 31.7842C20.9492 30.7657 19.0508 30.7657 17.6489 31.7842L11.0117 36.6064C9.44428 37.7452 7.33532 36.213 7.93402 34.3703L10.4692 26.5679C11.0047 24.9198 10.4181 23.1143 9.01611 22.0958L2.37896 17.2736C0.811526 16.1348 1.61708 13.6556 3.55452 13.6556H11.7585C13.4914 13.6556 15.0272 12.5397 15.5627 10.8916L18.0979 3.0892Z" stroke="#D6D6E3" stroke-width="2"/>
</svg>
