<svg width="22" height="29" viewBox="0 0 22 29" fill="none" xmlns="http://www.w3.org/2000/svg">
<path d="M20.7778 0C20.4536 0 20.1427 0.117513 19.9135 0.326689C19.6843 0.535864 19.5556 0.819566 19.5556 1.11538V5.57692H2.44444V1.11538C2.44444 0.819566 2.31567 0.535864 2.08646 0.326689C1.85725 0.117513 1.54638 0 1.22222 0C0.898069 0 0.587192 0.117513 0.357981 0.326689C0.12877 0.535864 0 0.819566 0 1.11538V27.8846C0 28.1804 0.12877 28.4641 0.357981 28.6733C0.587192 28.8825 0.898069 29 1.22222 29C1.54638 29 1.85725 28.8825 2.08646 28.6733C2.31567 28.4641 2.44444 28.1804 2.44444 27.8846V23.4231H19.5556V27.8846C19.5556 28.1804 19.6843 28.4641 19.9135 28.6733C20.1427 28.8825 20.4536 29 20.7778 29C21.1019 29 21.4128 28.8825 21.642 28.6733C21.8712 28.4641 22 28.1804 22 27.8846V1.11538C22 0.819566 21.8712 0.535864 21.642 0.326689C21.4128 0.117513 21.1019 0 20.7778 0ZM19.5556 7.80769V13.3846H2.44444V7.80769H19.5556ZM2.44444 21.1923V15.6154H19.5556V21.1923H2.44444Z" fill="#D6D6E3"/>
</svg>
