<svg width="39" height="39" viewBox="0 0 39 39" fill="none" xmlns="http://www.w3.org/2000/svg">
<path d="M19.5 26.7115C23.366 26.7115 26.5 23.5775 26.5 19.7115C26.5 15.8456 23.366 12.7115 19.5 12.7115C15.634 12.7115 12.5 15.8456 12.5 19.7115C12.5 23.5775 15.634 26.7115 19.5 26.7115Z" stroke="#D6D6E3" stroke-width="2" stroke-linecap="round" stroke-linejoin="round"/>
<path d="M29.4563 34.7073C26.1152 36.9256 22.129 37.9645 18.1302 37.6593C14.1315 37.3541 10.3491 35.7223 7.38338 33.0227C4.41765 30.3231 2.43839 26.7104 1.75968 22.7578C1.08096 18.8053 1.74165 14.7393 3.63692 11.205C5.5322 7.67066 8.55348 4.87051 12.2214 3.24882C15.8893 1.62714 19.9937 1.27682 23.8834 2.25344C27.7731 3.23006 31.2252 5.47769 33.692 8.63968C36.1588 11.8017 37.4991 15.6969 37.5 19.7073C37.5 23.8511 36 27.2073 32.25 27.2073C28.5 27.2073 27 23.8511 27 19.7073V12.2073" stroke="#D6D6E3" stroke-width="2" stroke-linecap="round" stroke-linejoin="round"/>
</svg>
